
<svg xmlns="http://www.w3.org/2000/svg" aria-hidden="true" style="position:absolute;width:0;height:0;overflow:hidden">
  <defs>
    <symbol id="icon-Logo" viewBox="0 0 31 32">
      <path fill="#ff6e40" d="M26.444 5.201c-6.284 0-11.378 5.094-11.378 11.378 6.284 0 11.378-5.094 11.378-11.378z" style="fill:var(--color1, #ff6e40)"/>
      <path fill="#ff6e40" d="M26.444 26.536c-6.284 0-11.378-5.094-11.378-11.378 6.284 0 11.378 5.094 11.378 11.378z" style="fill:var(--color1, #ff6e40)"/>
      <path fill="#ff6e40" d="M15.066 16.58c-6.284 0-11.378-5.094-11.378-11.378 6.284 0 11.378 5.094 11.378 11.378z" style="fill:var(--color1, #ff6e40)"/>
      <path fill="#ff6e40" d="M15.066 15.156c-6.284 0-11.378 5.094-11.378 11.378 6.284 0 11.378-5.094 11.378-11.378z" style="fill:var(--color1, #ff6e40)"/>
      <path fill="#ff6e40" d="M30.445 16.092c-4.443-4.443-11.647-4.443-16.091 0 4.443 4.443 11.647 4.443 16.091 0z" style="fill:var(--color1, #ff6e40)"/>
      <path fill="#ff6e40" d="M16.224 16.092c-4.443-4.443-11.647-4.443-16.091 0 4.443 4.443 11.647 4.443 16.091 0z" style="fill:var(--color1, #ff6e40)"/>
      <path fill="#ff6e40" d="M15.289 16.091c-4.443-4.443-4.443-11.647 0-16.091 4.443 4.443 4.443 11.647 0 16.091z" style="fill:var(--color1, #ff6e40)"/>
      <path fill="#ff6e40" d="M15.289 15.646c-4.443 4.443-4.443 11.647 0 16.09 4.443-4.443 4.443-11.647 0-16.09z" style="fill:var(--color1, #ff6e40)"/>
    </symbol>
    <symbol id="icon-Logo_name" viewBox="0 0 102 32">
      <path fill="#efe7e2" d="M4.144 11.267c.516 0 .972.075 1.369.226.405.151.786.377 1.143.679l-.929 1.107c-.246-.191-.488-.333-.726-.429s-.492-.143-.762-.143c-.556 0-.996.234-1.322.703-.318.468-.476 1.191-.476 2.167 0 .961.159 1.675.476 2.143.325.46.774.691 1.345.691.302 0 .575-.056.822-.167.246-.119.512-.286.798-.5l.869 1.119c-.31.31-.687.564-1.131.762a3.48 3.48 0 0 1-1.453.298c-.762 0-1.425-.167-1.988-.5s-1.004-.826-1.322-1.476c-.31-.659-.464-1.449-.464-2.37 0-.897.159-1.671.476-2.322.325-.651.77-1.143 1.334-1.476.572-.341 1.218-.512 1.941-.512zm6.58 0c1.175 0 2.088.377 2.739 1.131.659.754.988 1.818.988 3.191 0 .897-.151 1.671-.452 2.322-.294.651-.722 1.151-1.286 1.5-.556.341-1.218.512-1.988.512s-1.433-.171-1.988-.512c-.556-.341-.984-.834-1.286-1.476-.294-.651-.441-1.433-.441-2.346 0-.889.147-1.659.441-2.31.302-.651.73-1.147 1.286-1.488.556-.349 1.219-.524 1.988-.524zm0 1.429c-.564 0-.984.23-1.262.691-.27.452-.405 1.187-.405 2.203s.139 1.754.417 2.215c.278.46.695.691 1.25.691.572 0 .992-.226 1.262-.679.278-.46.417-1.203.417-2.227s-.139-1.762-.417-2.215c-.278-.452-.698-.679-1.262-.679zm8.233-1.429c1.175 0 2.088.377 2.739 1.131.659.754.988 1.818.988 3.191 0 .897-.151 1.671-.452 2.322-.294.651-.722 1.151-1.286 1.5-.556.341-1.218.512-1.988.512s-1.433-.171-1.988-.512c-.556-.341-.984-.834-1.286-1.476-.294-.651-.441-1.433-.441-2.346 0-.889.147-1.659.441-2.31.302-.651.73-1.147 1.286-1.488.556-.349 1.219-.524 1.988-.524zm0 1.429c-.564 0-.984.23-1.262.691-.27.452-.405 1.187-.405 2.203s.139 1.754.417 2.215c.278.46.695.691 1.25.691.572 0 .992-.226 1.262-.679.278-.46.417-1.203.417-2.227s-.139-1.762-.417-2.215c-.278-.452-.698-.679-1.262-.679zm6.851-1.227v6.704h3.215l-.202 1.548h-4.965v-8.252h1.953zm11.371 3.882c.548.103.992.306 1.334.607.349.302.524.754.524 1.357 0 .881-.317 1.504-.953 1.869-.627.357-1.508.536-2.643.536h-2.655v-8.252h2.334c1.159 0 2.044.167 2.655.5.611.325.917.861.917 1.607 0 .484-.147.877-.441 1.179a2.163 2.163 0 0 1-1.072.595zm-2.441-2.5v1.917h.726c.826 0 1.238-.333 1.238-1 0-.333-.111-.568-.333-.703-.222-.143-.575-.214-1.06-.214h-.572zm.715 5.453c.516 0 .905-.075 1.167-.226.27-.159.405-.449.405-.869 0-.762-.476-1.143-1.429-1.143h-.857v2.238h.714zm8.969 1.417-.429-1.774h-2.405l-.417 1.774h-2.024l2.489-8.252h2.37l2.489 8.252h-2.072zm-2.5-3.191h1.738l-.869-3.644-.869 3.644zm7.892.036h-.762v3.155h-1.953v-8.252h2.703c1.127 0 1.973.206 2.536.619.572.413.857 1.044.857 1.893 0 .532-.127.976-.381 1.334-.254.349-.655.647-1.203.893l2.096 3.513h-2.203l-1.691-3.155zm-.762-1.346h.822c.437 0 .762-.099.976-.298.222-.198.333-.512.333-.941 0-.397-.119-.687-.357-.869-.23-.183-.587-.274-1.072-.274h-.703v2.381zm9.79.131c.548.103.992.306 1.334.607.349.302.524.754.524 1.357 0 .881-.318 1.504-.953 1.869-.627.357-1.508.536-2.643.536h-2.655v-8.252h2.334c1.159 0 2.044.167 2.655.5.611.325.917.861.917 1.607 0 .484-.147.877-.441 1.179a2.163 2.163 0 0 1-1.072.595zm-2.441-2.5v1.917h.726c.826 0 1.238-.333 1.238-1 0-.333-.111-.568-.333-.703-.222-.143-.575-.214-1.06-.214H56.4zm.715 5.453c.516 0 .905-.075 1.167-.226.27-.159.405-.449.405-.869 0-.762-.476-1.143-1.429-1.143h-.857v2.238h.714zm9.742-6.835-.202 1.393h-2.905v1.977h2.536v1.369h-2.536v2.108h3.108v1.405h-5.06v-8.252h5.06zm3.921 5.097h-.762v3.155h-1.953v-8.252h2.703c1.127 0 1.973.206 2.536.619.572.413.857 1.044.857 1.893 0 .532-.127.976-.381 1.334-.254.349-.655.647-1.203.893l2.096 3.513h-2.203l-1.691-3.155zm-.762-1.346h.822c.437 0 .762-.099.976-.298.222-.198.333-.512.333-.941 0-.397-.119-.687-.357-.869-.23-.183-.587-.274-1.072-.274h-.703v2.381z" style="fill:var(--color2, #efe7e2)"/>
    </symbol>
    <symbol id="icon-Map" viewBox="0 0 25 32">
      <path d="M22.946 7.965c-.114-.427-.345-.882-.516-1.28C20.382 1.764 15.908.001 12.296.001 7.46.001 2.134 3.244 1.423 9.928v1.366c0 .057.02.569.048.825.399 3.185 2.912 6.571 4.789 9.756 2.02 3.413 4.115 6.77 6.192 10.126 1.28-2.19 2.556-4.409 3.807-6.542.341-.626.737-1.252 1.078-1.849.227-.398.662-.796.861-1.166 2.02-3.697 5.27-7.424 5.27-11.093V9.844c0-.398-.493-1.792-.521-1.877zM12.384 14.82c-1.422 0-2.978-.711-3.746-2.674-.114-.312-.105-.939-.105-.996v-.882c0-2.502 2.125-3.64 3.973-3.64 2.276 0 4.036 1.821 4.036 4.096s-1.883 4.096-4.158 4.096z"/>
    </symbol>
    <symbol id="icon-Mobile" viewBox="0 0 32 32">
      <path d="M26.913 20.019c-1.157-1.142-2.6-1.142-3.75 0-.877.869-1.753 1.738-2.615 2.622-.236.243-.434.295-.722.133-.567-.309-1.171-.56-1.716-.899-2.541-1.599-4.67-3.654-6.556-5.967-.936-1.149-1.768-2.379-2.35-3.764-.118-.28-.096-.464.133-.692.877-.847 1.731-1.716 2.593-2.586 1.201-1.208 1.201-2.622-.007-3.838-.685-.692-1.37-1.37-2.055-2.063-.707-.707-1.407-1.422-2.122-2.122C6.589-.284 5.146-.284 3.997.85c-.884.869-1.731 1.761-2.63 2.615C.535 4.253.115 5.218.026 6.345c-.14 1.834.309 3.565.943 5.252 1.296 3.492 3.271 6.593 5.665 9.436 3.234 3.845 7.094 6.887 11.609 9.083 2.033.987 4.14 1.746 6.431 1.871 1.576.088 2.947-.309 4.044-1.54.751-.84 1.599-1.606 2.394-2.409 1.179-1.193 1.186-2.637.015-3.816a1193.18 1193.18 0 0 0-4.213-4.206z"/>
    </symbol>
    <symbol id="icon-icon-one" viewBox="0 0 32 32">
      <path fill="#ff6e40" d="M18.5 18.5v4.639c.298.173.5.492.5.861s-.202.688-.5.861V29h5V18.5h-5zM14.5 21.5h-9v-5h9v5z" style="fill:var(--color1, #ff6e40)"/>
      <path fill="#efe7e2" d="M18.877 7.5a1.62 1.62 0 0 0-1.575 1.229l-.062.248-.636-.181-1.123-3.933-.962.275.953 3.334-3.335-.952-.275.961 3.933 1.124.182.636-.248.062a1.619 1.619 0 0 0-1.229 1.574c0 .895.728 1.623 1.623 1.623a1.379 1.379 0 0 0 1.324-1.756l-.519-1.816 1.817.519A1.379 1.379 0 0 0 20.5 9.123c0-.895-.728-1.623-1.623-1.623zm-2.754 5a.624.624 0 0 1-.151-1.228l.28-.07.233.816a.375.375 0 0 1-.362.482zm2.896-3.015-.817-.233.07-.28a.623.623 0 0 1 1.228.151.385.385 0 0 1-.481.362z" style="fill:var(--color2, #efe7e2)"/>
      <path fill="#efe7e2" d="M30.5 11.5h-.328l1.404-4.68-.263-.21A27.977 27.977 0 0 0 13.896.5H8.5v4.403C3.896 5.714.892 7.482.742 7.572l-.357.215 1.393 3.714H1.5c-.551 0-1 .448-1 1v1c0 .552.449 1 1 1v10.775c-.61.353-1 1.006-1 1.725 0 .312.08.612.216.886a.992.992 0 0 0-.216.614v3h30v-4a1 1 0 0 0 1-1v-7a.997.997 0 0 0-.408-.802 1.98 1.98 0 0 0 .408-1.198c0-.737-.405-1.375-1-1.722v-1.278a1 1 0 0 0 1-1v-1a1 1 0 0 0-1-1zm-21-10h4.396a26.978 26.978 0 0 1 16.528 5.682L29.128 11.5H27.5V8.24l-.213-.15c-.083-.058-2.057-1.419-5.735-2.454A6.496 6.496 0 0 0 16 2.5c-1.868 0-3.55.797-4.737 2.063-.608.042-1.195.105-1.763.183V1.5zm6.5 13c-3.032 0-5.5-2.467-5.5-5.5s2.468-5.5 5.5-5.5c3.033 0 5.5 2.467 5.5 5.5s-2.467 5.5-5.5 5.5zm-11.139-3-.786-2.356c.339-.127.707-.256 1.1-.384l.685 2.74h-.999zm2.03 0-.758-3.031c.323-.092.663-.178 1.012-.262l.732 3.293h-.986zm2.01 0-.78-3.51c.483-.097.985-.182 1.505-.254a6.464 6.464 0 0 0 .376 3.765H8.901zM26.5 9.613c-.79-.44-2.171-1.112-4.102-1.723a6.508 6.508 0 0 0-.27-1.038c2.348.747 3.844 1.595 4.372 1.921v.84zm-4.001-.639h.001V11.5h-.501c.322-.77.501-1.614.501-2.5l-.001-.026zm1.001.359c.364.14.696.278 1 .412V11.5h-1V9.333zm2 .884c.467.238.802.433 1 .556v.727h-1v-1.283zM10.449 5.636a6.427 6.427 0 0 0-.517 1.053c-3.693.448-6.59 1.606-8.033 2.285L1.62 8.23c1.063-.558 4.379-2.124 8.829-2.593zM2.252 9.913c.25-.119.547-.253.893-.399l.662 1.986h-.959l-.595-1.587zM1.5 12.5h9.031c.23.359.494.694.789 1H1.5v-1zm.674 13.562.359-.125-.025-.38L2.5 25.5c0-.552.449-1 1-1 .421 0 .799.271.938.674l.125.359.379-.024.057-.008a1 1 0 0 1 0 2H1.635a1.004 1.004 0 0 1-.137-.5c0-.421.271-.798.673-.938zm10.653 0c.402.14.673.517.673.938a.993.993 0 0 1-.136.5H10a1.001 1.001 0 0 1-.017-2l.453.032.125-.359a1 1 0 0 1 .939-.674c.552 0 1 .449 1 .983l-.032.453.359.126zm-3.333-1.49A1.998 1.998 0 0 0 8 26.5c0 .366.106.704.278 1H6.722a1.98 1.98 0 0 0 .278-1c0-1.024-.773-1.87-1.767-1.986a1.98 1.98 0 0 0-.381-.476c.282-.334.7-.538 1.148-.538.375 0 .736.144 1.017.405l.385.358.338-.402a.996.996 0 0 1 .76-.361 1 1 0 0 1 1 1c0 .024-.004.048-.006.072zM13.5 30.5h-12v-2h12v2zm1-1h12v1h-12v-1zm10-1h-3v-1h2v-1h-2v-1h2v-1h-2v-1h2v-1h-2v-1h2v-1h-2v-2h-1v2h-2v1h2v1h-2v.092c-.157-.056-.324-.092-.5-.092s-.343.036-.5.092V17.5h7v11zm-6.5-4c-.275 0-.5-.225-.5-.5s.225-.5.5-.5a.5.5 0 0 1 0 1zm1.408-1H20.5v1h-1.092c.056-.157.092-.324.092-.5s-.036-.343-.092-.5zM17.5 25.408c.157.056.324.092.5.092s.343-.036.5-.092v.092h2v1h-2v1h2v1h-3v-3.092zm11 1.092v-1h2.001v1H28.5zm0-9a1.001 1.001 0 1 1 1 1c-.551 0-1-.448-1-1zm2 2v1h-2v-1h2zm.001 4.566L28.5 22.733v-.798l2.001 1.334v.798zm-.849-2.566h.848v.566l-.848-.566zm-.303 3H28.5v-.566l.849.566zm.151-9c-1.103 0-2 .897-2 2 0 .451.156.863.409 1.198a.995.995 0 0 0-.409.802v7c0 .552.449 1 1 1h1v3h-2v-1a1 1 0 0 0-1-1h-1v-12h-9v12h-2a.992.992 0 0 0-.216-.614A1.99 1.99 0 0 0 14.5 27c0-.724-.395-1.382-1.013-1.733A2.004 2.004 0 0 0 11.5 23.5c-.408 0-.794.13-1.117.351a1.981 1.981 0 0 0-3.056-.965A2.474 2.474 0 0 0 6 22.5c-.817 0-1.572.406-2.036 1.059A1.94 1.94 0 0 0 3.5 23.5c-.365 0-.705.102-1 .273V14.5h10.052a6.451 6.451 0 0 0 6.897 0H29.5v1zm1-2h-9.82c.294-.306.558-.641.789-1H30.5v1z" style="fill:var(--color2, #efe7e2)"/>
      <path fill="#efe7e2" d="M9.5 16.5h1v5h-1v-5z" style="fill:var(--color2, #efe7e2)"/>
    </symbol>
    <symbol id="icon-icon-two" viewBox="0 0 32 32">
      <path fill="#ff6e40" d="M27.282 28.82h-6.154c-.848 0-1.538-.69-1.538-1.538s.69-1.538 1.538-1.538h6.154c.848 0 1.538.69 1.538 1.538s-.69 1.538-1.538 1.538zM6.256 10.359h.513v-.715c0-.976.413-1.898 1.121-2.547.24.704.907 1.211 1.693 1.211h4.757c.752 0 1.387-.5 1.591-1.186a3.453 3.453 0 0 1 1.094 2.523v.715h.513c.426 0 .811.173 1.089.452l.419-1.049a7.58 7.58 0 0 0-2.106-8.577L15.562.004l-.305.152c-.925.463-3.365 1.149-6.871 1.934A4.02 4.02 0 0 0 5.23 6.036v.007l-.183.183a2.86 2.86 0 0 0-.843 2.035c0 .444.105.889.304 1.287l.642 1.283c.28-.29.671-.473 1.106-.473z" style="fill:var(--color1, #ff6e40)"/>
      <path fill="#efe7e2" d="M9.846 10.872c.283 0 .513.23.513.513h1.026c0-.848-.69-1.538-1.538-1.538s-1.538.69-1.538 1.538h1.026c0-.283.23-.513.513-.513zM13.949 10.872c.283 0 .513.23.513.513h1.026c0-.848-.69-1.538-1.538-1.538s-1.538.69-1.538 1.538h1.026c0-.283.23-.513.513-.513zM14.409 13.677l.026-.079-.973-.325-.026.079a1.62 1.62 0 0 1-3.076 0l-.026-.079-.973.325.026.078c.361 1.084 1.37 1.811 2.511 1.811s2.151-.727 2.511-1.81zM12.617 3.797l2.051-1.538.615.821-2.051 1.538-.615-.821z" style="fill:var(--color2, #efe7e2)"/>
      <path fill="#efe7e2" d="M30.575 23.714a2.03 2.03 0 0 0 .297-1.047 2.05 2.05 0 0 0-1.315-1.909c.18-.288.29-.626.29-.991 0-.944-.706-1.744-1.643-1.861l-.169-.021a4.169 4.169 0 0 1-3.353-2.588l-.228-.569-3.677 2.298a2.51 2.51 0 0 0-1.016 3.034 5.748 5.748 0 0 0-.728-.185l-2.695-.476a2.055 2.055 0 0 1-1.667-1.683l-.139-.835a5.664 5.664 0 0 0 2.616-2.934h.392c1.131 0 2.051-.92 2.051-2.051s-.92-2.051-2.051-2.051v-.203c0-.997-.384-1.96-1.056-2.689.014-.101.031-.202.031-.306a2.19 2.19 0 0 0-.229-.972L15.949 5l-.917.459.337.675a1.148 1.148 0 0 1-1.026 1.66H12.52a1.39 1.39 0 0 1 .517-.655l.685-.457-.569-.853-.685.457a2.42 2.42 0 0 0-1.024 1.508H10.36c0-.803.384-1.57 1.026-2.051l.82-.615-.615-.821-.82.615a3.607 3.607 0 0 0-1.434 2.847 1.276 1.276 0 0 1-1.027-1.25c0-.647.309-1.264.826-1.652l1.02-.765-.615-.821-1.02.765a3.105 3.105 0 0 0-1.236 2.472c0 .145.017.285.043.422A3.978 3.978 0 0 0 6.26 9.643v.203c-1.131 0-2.051.92-2.051 2.051s.92 2.051 2.051 2.051h.392a5.672 5.672 0 0 0 2.616 2.934l-.139.835A2.056 2.056 0 0 1 7.462 19.4l-2.695.476a5.632 5.632 0 0 0-4.661 5.555v6.467H29.85c1.131 0 2.051-.92 2.051-2.051v-4.615c0-.774-.577-1.411-1.323-1.517zm-1.755-.022h-9.231a1.027 1.027 0 0 1 0-2.052h9.231a1.027 1.027 0 0 1 0 2.052zm-7.5-5.797 2.668-1.667a5.194 5.194 0 0 0 3.921 2.674l.169.021a.85.85 0 0 1-.105 1.692h-6.247l-.085-.029a1.495 1.495 0 0 1-1.025-1.421c0-.52.263-.995.704-1.271zm-2.756-5.998c0 .566-.46 1.026-1.026 1.026h-.098c.062-.333.098-.675.098-1.026v-1.026c.566 0 1.026.46 1.026 1.026zM6.256 12.923a1.027 1.027 0 0 1 0-2.052v1.026c0 .351.036.692.098 1.026h-.098zm1.026-1.026V9.643c0-.603.188-1.188.527-1.676a2.288 2.288 0 0 0 1.774.853h4.757c.678 0 1.277-.318 1.675-.807.319.479.497 1.047.497 1.63v2.254c0 2.545-2.071 4.615-4.615 4.615s-4.615-2.071-4.615-4.615zm2.855 5.989.1-.597a5.63 5.63 0 0 0 3.322 0l.1.597a3.074 3.074 0 0 0 1.761 2.285 4.766 4.766 0 0 1-3.434 1.47h-.173a4.769 4.769 0 0 1-3.435-1.47 3.075 3.075 0 0 0 1.761-2.285zm6.651 12.986H5.231v-5.128H4.205v5.128H1.128v-5.441a4.609 4.609 0 0 1 3.813-4.545l2.342-.413a5.793 5.793 0 0 0 4.527 2.194h.173c1.77 0 3.433-.82 4.527-2.195l2.145.378a2.048 2.048 0 0 0-1.118 1.816c0 .384.113.74.297 1.047a1.537 1.537 0 0 0-1.323 1.517v4.615c0 .373.1.724.275 1.026zm14.084-1.026c0 .566-.46 1.026-1.026 1.026H18.564c-.566 0-1.026-.46-1.026-1.026v-4.615c0-.283.23-.513.513-.513h12.308c.283 0 .513.23.513.513v4.615z" style="fill:var(--color2, #efe7e2)"/>
    </symbol>
    <symbol id="icon-icon-three" viewBox="0 0 32 32">
      <path fill="#ff6e40" d="M28.159 21.277a4.69 4.69 0 0 1-1.39-3.349V8.969c0-4.892-3.974-8.867-8.867-8.867-.636 0-1.277.072-1.903.205a9.185 9.185 0 0 0-1.903-.205c-4.892 0-8.867 3.974-8.867 8.867v8.959a4.688 4.688 0 0 1-1.39 3.349l-.503.503.636.318a15.133 15.133 0 0 0 6.749 1.595h1.174V22.27h.016a6.143 6.143 0 0 1-3.093-5.331v-3.077c0-.067.005-.128.021-.19l-.005.01a2.05 2.05 0 0 1 1.01-3.836v-.031c0-1.554.877-2.974 2.267-3.667l.81-.405a6.04 6.04 0 0 0 3.154 2.903l.436.174.513-3.077 1.831.303a3.951 3.951 0 0 1 3.297 3.898v-.097a2.05 2.05 0 0 1 1.01 3.836l-.005-.01a.79.79 0 0 1 .02.19v3.077a6.143 6.143 0 0 1-3.093 5.331h.016v1.423h1.174c2.328 0 4.662-.549 6.749-1.595l.636-.318-.503-.503z" style="fill:var(--color1, #ff6e40)"/>
      <path fill="#efe7e2" d="M17.026 15.879c-.195.391-.588.634-1.026.634s-.83-.243-1.026-.634l-.054-.108-.917.459.054.108c.37.741 1.115 1.201 1.943 1.201s1.573-.46 1.943-1.201l.054-.108-.917-.459-.054.109z" style="fill:var(--color2, #efe7e2)"/>
      <path fill="#efe7e2" d="m26.935 25.439-6.32-1.149v-1.734a6.66 6.66 0 0 0 3.077-5.617v-2.992a2.572 2.572 0 0 0 1.026-2.05 2.565 2.565 0 0 0-2.09-2.516 4.42 4.42 0 0 0-1.268-2.592 4.434 4.434 0 0 0-2.421-1.246l-2.334-.39-.492 2.952a5.51 5.51 0 0 1-2.589-2.337l.243-.365a4.985 4.985 0 0 1 4.155-2.224c.989 0 1.947.29 2.771.839l.151.101.569-.853-.151-.1a5.997 5.997 0 0 0-3.34-1.011 6.01 6.01 0 0 0-5.01 2.681l-.341.511-.687.344a4.577 4.577 0 0 0-2.521 3.693 2.565 2.565 0 0 0-2.082 2.515c0 .811.386 1.57 1.026 2.05v2.992a6.66 6.66 0 0 0 3.077 5.617v1.734l-6.32 1.149a6.041 6.041 0 0 0-4.962 5.946v.513h31.795v-.513a6.041 6.041 0 0 0-4.962-5.946zm-15.55-6.696c.317.304.657.581 1.026.815v2.408l-.11-.059a5.585 5.585 0 0 1-.915-.631v-2.532zm2.051 1.344c.333.14.673.262 1.026.346v2.637l-1.026-.552v-2.431zm2.051.498c.171.013.341.03.513.03s.342-.017.513-.03v3.006a1.543 1.543 0 0 1-1.026 0v-3.006zm2.051-.152a6.727 6.727 0 0 0 1.026-.346v2.431l-1.026.552v-2.637zm2.052 1.533v-2.408a6.69 6.69 0 0 0 1.026-.815v2.532a5.608 5.608 0 0 1-.915.631l-.11.059zm.923-4.632C19.454 18.746 17.766 19.59 16 19.59s-3.453-.844-4.513-2.256l-.012-.017.64-1.441a2.382 2.382 0 0 1 3.241-1.163l.644.322.644-.322a2.384 2.384 0 0 1 3.241 1.163l.64 1.441-.012.017zm-5.72 7.08a2.558 2.558 0 0 0 2.414 0l2.383-1.283v1.33L16 27.153l-3.59-2.692v-1.33l2.383 1.283zm.393 3.412-2.982 2.609-1.163-5.039.727-.132 3.417 2.563zm.814.65 2.737 2.395h-5.475l2.737-2.395zm.814-.65 3.417-2.563.727.132-1.163 5.039-2.982-2.609zm5.853-10.887a5.625 5.625 0 0 1-1.026 3.224V17.5a6.716 6.716 0 0 0 1.026-3.551v2.991zm1.025-5.042c0 .365-.14.705-.367.977-.029-.034-.052-.071-.084-.102l-.575-.575v-1.745a1.536 1.536 0 0 1 1.026 1.444zm-13.333-2.08c0-1.369.76-2.599 1.985-3.211l.368-.184a6.54 6.54 0 0 0 3.176 2.7l1.026.41.533-3.199 1.323.221c.71.118 1.355.45 1.865.96a3.41 3.41 0 0 1 1.006 2.429v4.006c0 .781-.168 1.556-.481 2.27l-.337-.759a3.41 3.41 0 0 0-4.637-1.663L16 13.89l-.185-.093a3.41 3.41 0 0 0-4.637 1.663l-.337.759a5.663 5.663 0 0 1-.481-2.27V9.818zm-1.026.636v1.745l-.575.575c-.032.032-.055.068-.084.102a1.53 1.53 0 0 1-.367-.977c0-.668.43-1.232 1.026-1.444zm0 6.486v-2.991c0 1.252.362 2.493 1.026 3.551v2.663a5.62 5.62 0 0 1-1.026-3.224zm-4.085 9.509 4.783-.87 1.222 5.294H1.155a5.014 5.014 0 0 1 4.094-4.424zm15.499 4.424 1.222-5.294 4.783.87a5.016 5.016 0 0 1 4.094 4.424H20.748z" style="fill:var(--color2, #efe7e2)"/>
      <path fill="#efe7e2" d="M12.923 10.872c.283 0 .513.23.513.513h1.026c0-.848-.69-1.538-1.538-1.538s-1.538.69-1.538 1.538h1.026c0-.283.23-.513.513-.513zM19.077 10.872c.283 0 .513.23.513.513h1.026c0-.848-.69-1.538-1.538-1.538s-1.538.69-1.538 1.538h1.026c0-.283.23-.513.513-.513z" style="fill:var(--color2, #efe7e2)"/>
    </symbol>
  </defs>
</svg>